<svg width="34" height="35" viewBox="0 0 34 35" fill="none" xmlns="http://www.w3.org/2000/svg">
<path d="M17.439 3.15198C21.8691 3.15198 22.3937 3.17249 24.136 3.25454C25.7551 3.32975 26.6295 3.61692 27.2124 3.85622C27.9832 4.17074 28.5402 4.55362 29.1166 5.16214C29.6995 5.7775 30.0557 6.35866 30.3536 7.1723C30.5803 7.78765 30.8524 8.71752 30.9236 10.42C31.0013 12.2661 31.0207 12.8199 31.0207 17.4897C31.0207 22.1664 31.0013 22.7203 30.9236 24.5595C30.8524 26.2688 30.5803 27.1918 30.3536 27.8072C30.0557 28.6208 29.693 29.2088 29.1166 29.8174C28.5337 30.4327 27.9832 30.8088 27.2124 31.1233C26.6295 31.3626 25.7487 31.6497 24.136 31.7249C22.3872 31.807 21.8626 31.8275 17.439 31.8275C13.0089 31.8275 12.4843 31.807 10.742 31.7249C9.12285 31.6497 8.24849 31.3626 7.66559 31.1233C6.89485 30.8088 6.33785 30.4259 5.76142 29.8174C5.17851 29.202 4.82229 28.6208 4.52436 27.8072C4.29767 27.1918 4.02565 26.262 3.95441 24.5595C3.87669 22.7134 3.85726 22.1596 3.85726 17.4897C3.85726 12.8131 3.87669 12.2592 3.95441 10.42C4.02565 8.71069 4.29767 7.78765 4.52436 7.1723C4.82229 6.35866 5.18499 5.77066 5.76142 5.16214C6.34433 4.54679 6.89485 4.17074 7.66559 3.85622C8.24849 3.61692 9.12933 3.32975 10.742 3.25454C12.4843 3.17249 13.0089 3.15198 17.439 3.15198ZM17.439 0C12.9377 0 12.3742 0.0205118 10.606 0.102559C8.84435 0.184606 7.6332 0.485446 6.58397 0.916195C5.4894 1.36745 4.56322 1.9623 3.64352 2.94003C2.71735 3.91092 2.15387 4.88865 1.72641 6.03731C1.31837 7.15179 1.03339 8.42352 0.955672 10.2833C0.877951 12.1567 0.858521 12.7515 0.858521 17.5034C0.858521 22.2553 0.877951 22.8502 0.955672 24.7167C1.03339 26.5765 1.31837 27.8551 1.72641 28.9627C2.15387 30.1182 2.71735 31.0959 3.64352 32.0668C4.56322 33.0377 5.4894 33.6394 6.57749 34.0838C7.6332 34.5146 8.83788 34.8154 10.5996 34.8974C12.3677 34.9795 12.9312 35 17.4325 35C21.9339 35 22.4973 34.9795 24.2655 34.8974C26.0272 34.8154 27.2383 34.5146 28.2876 34.0838C29.3757 33.6394 30.3018 33.0377 31.2215 32.0668C32.1412 31.0959 32.7112 30.1182 33.1322 28.9695C33.5402 27.8551 33.8252 26.5833 33.9029 24.7236C33.9806 22.857 34.0001 22.2622 34.0001 17.5103C34.0001 12.7584 33.9806 12.1635 33.9029 10.2969C33.8252 8.4372 33.5402 7.15863 33.1322 6.05099C32.7241 4.88865 32.1607 3.91092 31.2345 2.94003C30.3148 1.96913 29.3886 1.36745 28.3005 0.923032C27.2448 0.492284 26.0401 0.191444 24.2785 0.109396C22.5038 0.0205118 21.9403 0 17.439 0Z" fill="white"/>
<path d="M17.4389 8.51241C12.7368 8.51241 8.922 12.5396 8.922 17.5034C8.922 22.4673 12.7368 26.4944 17.4389 26.4944C22.141 26.4944 25.9559 22.4673 25.9559 17.5034C25.9559 12.5396 22.141 8.51241 17.4389 8.51241ZM17.4389 23.3356C14.3884 23.3356 11.9143 20.7238 11.9143 17.5034C11.9143 14.2831 14.3884 11.6712 17.4389 11.6712C20.4895 11.6712 22.9636 14.2831 22.9636 17.5034C22.9636 20.7238 20.4895 23.3356 17.4389 23.3356Z" fill="white"/>
<path d="M28.2809 8.1568C28.2809 9.31914 27.3871 10.2558 26.2926 10.2558C25.1915 10.2558 24.3042 9.3123 24.3042 8.1568C24.3042 6.99446 25.198 6.05775 26.2926 6.05775C27.3871 6.05775 28.2809 7.0013 28.2809 8.1568Z" fill="white"/>
</svg>
